<svg version="1.1" xmlns="http://www.w3.org/2000/svg" viewBox="-448.26505765015077 -178.85253940727023 896.5301153003015 357.70507881454034" fill="none" stroke="black" stroke-width="0.6%" vector-effect="non-scaling-stroke">
    <path d="M -447.26506 35.46267 L -447.26506 -142.24141 L 0.08578 0.14845 L 447.26506 -35.46267 L -0.08578 -177.85254 L -447.26506 -142.24141" />
    <path d="M 0.08578 177.85254 L 0.08578 0.14845" />
    <path d="M -447.26506 35.46267 L 0.08578 177.85254 L 447.26506 142.24141 L 447.26506 -35.46267" />
    <path d="M 53.90013 -58.52366 Q 62.13 -61.22 85.18761 -63.05788 Q 107.28 -64.82 125.45317 -64.23048 Q 143.62 -63.64 152.0533 -60.95966 Q 160.7 -58.21 156.7214 -58.05673 Q 160.7 -58.21 153.32491 -55.6892 L 164.19885 -56.39868 L 171.58189 -54.0487 L 79.35116 -46.7039 Q 61.01 -45.24 45.00273 -46.1329 Q 29 -47.02 19.82146 -49.94262 Q 14.71 -51.57 14.18421 -53.47469 Q 13.66 -55.38 14.13435 -53.83164 Q 13.66 -55.38 18.67934 -56.80537 L 32.56796 -56.2425 Q 24.93 -53.57 28.71605 -53.61562 Q 24.93 -53.57 32.44183 -51.17364 Q 38.34 -49.3 48.27568 -48.77518 Q 58.21 -48.25 70.26471 -49.21377 L 78.38731 -49.86061 Q 62.36 -50.51 53.97078 -53.18363 Q 45.67 -55.83 49.80282 -55.85105 Q 45.67 -55.83 53.90013 -58.52366 L 53.90013 -53.20622" />
    <path d="M -71.98347 -144.57294 L -22.79235 -128.91562 L -36.59202 -127.81668 L -57.03736 -134.32434 L -170.40429 -125.29636 L -178.74843 -127.95227 L -65.3815 -136.98025 L -85.78314 -143.474 L -71.98347 -144.57294 L -71.98347 -139.08163" />
    <path d="M -100.48673 -105.99609 Q -114.18 -107.47 -122.91695 -110.18135 L -140.52265 -115.78517 L -13.35604 -125.91208 L -13.35604 -120.42077" />
    <path d="M -69.78302 -104.49496 Q -86.79 -104.52 -100.48673 -105.99609" />
    <path d="M -34.7803 -105.90035 Q -52.77 -104.47 -69.78302 -104.49496" />
    <path d="M -26.65771 -106.54719 L -34.7803 -105.90035" />
    <path d="M 0.91845 -110.14265 Q -9.15 -107.96 -26.65771 -106.54719" />
    <path d="M 11.94131 -114.9406 Q 10.98 -112.33 0.91845 -110.14265" />
    <path d="M 4.59915 -120.19702 Q 12.9 -117.56 12.0405 -115.48209 Q 12.9 -117.56 11.94131 -114.9406" />
    <path d="M -13.35604 -125.91208 L 4.59915 -120.19702 L 4.59915 -111.03857" />
    <path d="M -29.17183 -86.9114 Q -53.37 -87.35 -65.24996 -91.13109 Q -74.86 -94.19 -70.95094 -94.71271 Q -74.86 -94.19 -68.26918 -97.11421 L -68.26918 -92.26647" />
    <path d="M -26.42252 -89.09476 L -29.17183 -86.9114" />
    <path d="M -40.87924 -90.01222 Q -34.41 -89.34 -26.42252 -89.09476" />
    <path d="M -51.6248 -92.04228 Q -47.34 -90.68 -40.87924 -90.01222 L -40.87924 -87.36238" />
    <path d="M -52.96054 -95.89083 Q -57.65 -93.96 -55.01471 -94.20365 Q -57.65 -93.96 -51.6248 -92.04228 L -51.6248 -88.34801" />
    <path d="M -34.46793 -98.98891 Q -48.27 -97.82 -52.96054 -95.89083" />
    <path d="M -2.44565 -88.79636 L -34.46793 -98.98891" />
    <path d="M 4.27951 -89.33191 L -2.44565 -88.79636" />
    <path d="M 33.92938 -93.72704 Q 26.9 -91.13 4.27951 -89.33191" />
    <path d="M 31.74039 -99.25475 Q 40.96 -96.32 36.97031 -96.03498 Q 40.96 -96.32 33.92938 -93.72704" />
    <path d="M 15.03266 -102.08776 Q 26.1 -101.05 31.74039 -99.25475 L 31.74039 -93.03927" />
    <path d="M -9.7747 -103.10231 Q 3.96 -103.13 15.03266 -102.08776 L 15.03266 -99.03539" />
    <path d="M -37.57159 -101.95784 Q -23.51 -103.08 -9.7747 -103.10231 L -9.7747 -100.39387" />
    <path d="M -40.54114 -101.72136 L -37.57159 -101.95784 L -37.57159 -98.70515" />
    <path d="M -68.26918 -97.11421 Q -61.68 -100.04 -40.54114 -101.72136 L -40.54114 -98.38724" />
    <path d="M 42.76847 -75.98626 Q 44.6 -77.44 43.38366 -77.14942 Q 44.6 -77.44 40.97344 -80.57182 Q 36.38 -84.5 38.55638 -84.25362 Q 36.38 -84.5 40.50889 -86.78447 L 40.50889 -80.98599" />
    <path d="M 31.59024 -73.79226 Q 40.94 -74.54 42.76847 -75.98626 L 42.76847 -71.34348" />
    <path d="M 13.29122 -73.74314 Q 22.24 -73.05 31.59024 -73.79226 L 31.59024 -70.62341" />
    <path d="M -2.30283 -76.55184 Q 4.34 -74.44 13.29122 -73.74314 L 13.29122 -70.80982" />
    <path d="M -7.0017 -80.70624 Q -9.42 -78.82 -7.61642 -79.72356 Q -9.42 -78.82 -2.30283 -76.55184 L -2.30283 -72.38053" />
    <path d="M 6.94919 -83.51218 Q -4.58 -82.59 -7.0017 -80.70624" />
    <path d="M -1.48233 -86.1959 L 6.94919 -83.51218" />
    <path d="M -18.22854 -83.63672 Q -12.57 -85.31 -1.48233 -86.1959 L -1.48233 -82.50769" />
    <path d="M -23.22537 -79.75326 Q -23.88 -81.96 -23.29381 -80.20727 Q -23.88 -81.96 -18.22854 -83.63672 L -18.22854 -76.23212" />
    <path d="M -16.01516 -75.45986 Q -22.57 -77.55 -23.22537 -79.75326" />
    <path d="M 9.40688 -71.06956 Q -5.92 -72.25 -16.01516 -75.45986" />
    <path d="M 40.19643 -71.12246 Q 24.74 -69.89 9.40688 -71.06956" />
    <path d="M 54.89051 -73.15314 Q 49.89 -71.89 40.19643 -71.12246" />
    <path d="M 60.78339 -76.26482 Q 59.89 -74.41 54.89051 -73.15314" />
    <path d="M 58.20211 -80.99639 Q 61.68 -78.12 60.96616 -77.06579 Q 61.68 -78.12 60.78339 -76.26482" />
    <path d="M 56.80037 -85.35251 Q 54.73 -83.87 56.02574 -84.05264 L 56.02574 -73.46215" />
    <path d="M 56.02574 -84.05264 Q 54.73 -83.87 58.20211 -80.99639 L 58.20211 -74.24141" />
    <path d="M 66.64666 -87.44913 Q 58.87 -86.83 56.80037 -85.35251" />
    <path d="M 85.27318 -87.55041 Q 76.34 -88.22 66.64666 -87.44913" />
    <path d="M 100.4085 -84.9051 Q 94.21 -86.88 85.27318 -87.55041" />
    <path d="M 104.16808 -81.08443 Q 107.09 -82.78 105.05818 -82.15533 L 105.05818 -76.47998" />
    <path d="M 105.05818 -82.15533 Q 107.09 -82.78 100.4085 -84.9051" />
    <path d="M 89.71476 -78.47316 Q 101.24 -79.39 104.16808 -81.08443 L 104.16808 -76.37299" />
    <path d="M 98.14628 -75.78944 L 89.71476 -78.47316" />
    <path d="M 114.80524 -78.23737 Q 108.71 -76.63 98.14628 -75.78944" />
    <path d="M 120.82864 -81.88097 Q 120.9 -79.84 120.82937 -81.83638 Q 120.9 -79.84 114.80524 -78.23737" />
    <path d="M 114.20817 -86.00403 Q 120.76 -83.92 120.82864 -81.88097 L 120.82864 -81.79189" />
    <path d="M 88.76449 -90.19269 Q 104.6 -89.06 114.20817 -86.00403 L 114.20817 -78.08441" />
    <path d="M 57.90944 -90.12589 Q 72.93 -91.32 88.76449 -90.19269 L 88.76449 -87.22687" />
    <path d="M 40.50889 -86.78447 Q 44.63 -89.07 57.90944 -90.12589 L 57.90944 -85.93007" />
    <path d="M 112.56128 -72.8347 L 120.6433 -70.26223 L 26.14175 -62.7366 L 18.05972 -65.30907 L 112.56128 -72.8347 L 112.56128 -69.61862" />
    <path d="M 89.26889 -42.6435 L 183.77045 -50.16913 L 183.77045 -47.05824" />
    <path d="M 97.35091 -40.07102 L 89.26889 -42.6435" />
    <path d="M 164.68982 -45.43356 L 97.35091 -40.07102" />
    <path d="M 180.3254 -44.83597 Q 173.16 -45.45 164.68982 -45.43356" />
    <path d="M 191.42019 -42.97279 Q 187.49 -44.22 180.3254 -44.83597" />
    <path d="M 193.67193 -40.30978 Q 196.27 -41.43 194.57796 -41.14237 L 194.57796 -36.2934" />
    <path d="M 194.57796 -41.14237 Q 196.27 -41.43 191.42019 -42.97279" />
    <path d="M 180.8994 -38.36258 Q 191.07 -39.19 193.67193 -40.30978 L 193.67193 -36.20473" />
    <path d="M 118.36417 -33.38259 L 180.8994 -38.36258 L 180.8994 -35.1465" />
    <path d="M 126.44619 -30.81012 L 118.36417 -33.38259" />
    <path d="M 188.89408 -35.78316 L 126.44619 -30.81012" />
    <path d="M 207.57898 -43.28608 Q 222.56 -38.52 212.19393 -40.54137 Q 222.56 -38.52 188.89408 -35.78316" />
    <path d="M 179.79952 -46.70635 Q 198.84 -46.07 207.57898 -43.28608 L 207.57898 -38.18291" />
    <path d="M 191.4156 -47.73571 L 179.79952 -46.70635 L 179.79952 -44.87989" />
    <path d="M 183.77045 -50.16913 L 191.4156 -47.73571" />
    <path d="M 131.62338 -74.13541 Q 133.04 -74.73 136.97248 -75.03945 L 136.97248 -71.98462" />
    <path d="M 132.56365 -72.79347 Q 130.2 -73.54 131.09054 -73.66892 Q 130.2 -73.54 131.62338 -74.13541 L 131.62338 -73.15734" />
    <path d="M 138.76614 -71.8619 Q 134.92 -72.04 132.56365 -72.79347" />
    <path d="M 146.53984 -71.9942 Q 142.61 -71.68 138.76614 -71.8619" />
    <path d="M 151.95444 -72.91215 Q 150.47 -72.31 146.53984 -71.9942" />
    <path d="M 151.07967 -74.26799 Q 153.44 -73.52 152.52767 -73.40118 Q 153.44 -73.52 151.95444 -72.91215" />
    <path d="M 144.81168 -75.18566 Q 148.72 -75.02 151.07967 -74.26799 L 151.07967 -72.63308" />
    <path d="M 136.97248 -75.03945 Q 140.9 -75.35 144.81168 -75.18566 L 144.81168 -71.88022" />
    <path d="M 78.38731 -49.86061 L 78.38731 -46.62864" />
    <path d="M 18.67934 -56.80537 L 18.67934 -50.33033" />
    <path d="M 164.19885 -56.39868 L 164.19885 -53.46075" />
    <path d="M 153.32491 -55.6892 L 153.32491 -52.5948" />
    <path d="M -65.3815 -136.98025 L -65.3815 -133.65986" />
    <path d="M 91.47918 -60.32545 Q 75.5 -59.05 69.64551 -57.2829 Q 63.8 -55.51 66.73201 -55.49363 L 66.73201 -50.71202" />
    <path d="M 66.73201 -55.49363 Q 63.8 -55.51 69.6927 -53.63597 L 69.6927 -50.41271" />
    <path d="M 94.80717 -51.16821 L 94.80717 -47.93474" />
    <path d="M 69.6927 -53.63597 Q 77.34 -51.2 94.80717 -51.16821 L 137.95298 -54.60413 Q 147.78 -56.86 143.54783 -57.21193 L 143.54783 -51.8162" />
    <path d="M 137.95298 -54.60413 L 137.95298 -51.37066" />
    <path d="M 143.54783 -57.21193 Q 147.78 -56.86 140.35055 -59.22804 Q 134.45 -61.11 121.96201 -61.43174 Q 109.47 -61.76 91.47918 -60.32545" />
    <path d="M -8.98209 -119.02855 L -18.76789 -122.14333 L -118.42249 -114.20734 L -109.5978 -111.39848 L -109.5978 -107.20062" />
    <path d="M -118.42249 -114.20734 L -118.42249 -108.94743" />
    <path d="M -109.5978 -111.39848 Q -99.9 -108.31 -82.4512 -107.55404 L -82.4512 -104.73273" />
    <path d="M -82.4512 -107.55404 Q -65 -106.8 -42.7314 -108.57017 L -42.7314 -105.33547" />
    <path d="M -42.7314 -108.57017 L -35.30752 -109.16137 L -35.30752 -105.85866" />
    <path d="M -35.30752 -109.16137 Q -13.65 -110.89 -6.72756 -113.4626 L -6.72756 -108.75602" />
    <path d="M -6.72756 -113.4626 Q 0.19 -116.04 -3.75237 -115.75442 L -3.75237 -109.2396" />
    <path d="M -3.75237 -115.75442 Q 0.19 -116.04 -8.98209 -119.02855" />
    <path d="M 18.46476 -98.19755 Q 13.57 -99.75 3.13349 -100.24488 Q -7.3 -100.73 -20.93017 -99.96269 L 2.74797 -92.42604 L 3.97072 -92.52341 L 3.97072 -89.30732" />
    <path d="M -20.93017 -99.96269 L -20.93017 -94.6799" />
    <path d="M 2.74797 -92.42604 L 2.74797 -89.20995" />
    <path d="M 3.97072 -92.52341 Q 15.94 -93.62 19.73427 -95.09994 L 19.73427 -90.88083" />
    <path d="M 19.73427 -95.09994 Q 23.53 -96.58 21.3614 -96.39552 L 21.3614 -91.09714" />
    <path d="M 21.3614 -96.39552 Q 23.53 -96.58 18.46476 -98.19755" />
    <path d="M 85.18761 -63.05788 L 85.18761 -59.76641" />
    <path d="M 70.26471 -49.21377 L 70.26471 -46.11746" />
    <path d="M 48.27568 -48.77518 L 48.27568 -45.97655" />
    <path d="M 32.44183 -51.17364 L 32.44183 -47.28127" />
    <path d="M 152.0533 -60.95966 L 152.0533 -52.49354" />
    <path d="M 125.45317 -64.23048 L 125.45317 -61.3041" />
    <path d="M 28.71605 -53.61562 L 28.71605 -47.85084" />
    <path d="M -55.01471 -94.20365 L -55.01471 -88.82813" />
    <path d="M 43.38366 -77.14942 L 43.38366 -71.40158" />
    <path d="M -7.61642 -79.72356 L -7.61642 -73.31788" />
</svg>