<svg version="1.1" xmlns="http://www.w3.org/2000/svg" viewBox="3.78515525 -42.6015635 729.83203325 187.7421895" fill="none" stroke="black" stroke-width="0.6%" vector-effect="non-scaling-stroke">
    <path d="M 114.74609 142.1875 L 114.74609 126.75781 L 69.04297 126.75781 L 69.04297 0 L 50.39063 0 L 50.39063 126.75781 L 4.78516 126.75781 L 4.78516 142.1875 L 114.74609 142.1875 Z" />
    <path d="M 175.19531 0 L 135.83984 0 L 135.83984 142.1875 L 175.97656 142.1875 Q 194.53 142.19 208.78906 133.98438 Q 223.05 125.78 230.81055 110.64453 Q 238.57 95.51 238.67188 75.87891 L 238.67188 66.79688 Q 238.67 46.68 230.9082 31.54297 Q 223.14 16.41 208.74023 8.30078 Q 194.34 0.2 175.19531 0 Z" />
    <path d="M 175.97656 142.1875 Q 194.53 142.19 208.78906 133.98438 Q 223.05 125.78 230.81055 110.64453 Q 238.57 95.51 238.67188 75.87891" />
    <path d="M 238.67188 66.79688 Q 238.67 46.68 230.9082 31.54297 Q 223.14 16.41 208.74023 8.30078 Q 194.34 0.2 175.19531 0" />
    <path d="M 176.46484 126.75781 L 154.58984 126.75781 L 154.58984 15.33203 L 174.31641 15.33203 Q 196 15.33 208.05664 28.80859 Q 220.12 42.29 220.11719 67.1875 L 220.11719 75.48828 Q 220.12 99.71 208.74023 113.13477 Q 197.36 126.56 176.46484 126.75781 Z" />
    <path d="M 174.31641 15.33203 Q 196 15.33 208.05664 28.80859 Q 220.12 42.29 220.11719 67.1875" />
    <path d="M 220.11719 75.48828 Q 220.12 99.71 208.74023 113.13477 Q 197.36 126.56 176.46484 126.75781" />
    <path d="M 308.00781 -1.95312 Q 286.52 -1.95 273.04688 12.1582 Q 259.57 26.27 259.57031 49.90234 L 259.57031 53.22266 Q 259.57 68.95 265.57617 81.29883 Q 271.58 93.65 282.37305 100.63477 Q 293.16 107.62 305.76172 107.61719 Q 326.37 107.62 337.79297 94.04297 Q 349.22 80.47 349.21875 55.17578 L 349.21875 47.65625 L 277.63672 47.65625 Q 278.03 32.03 286.76758 22.41211 Q 295.51 12.79 308.98438 12.79297 Q 318.55 12.79 325.19531 16.69922 Q 331.84 20.61 336.81641 27.05078 L 347.85156 18.45703 Q 334.57 -1.95 308.00781 -1.95312 Q 286.52 -1.95 273.04688 12.1582 Q 259.57 26.27 259.57031 49.90234" />
    <path d="M 259.57031 53.22266 Q 259.57 68.95 265.57617 81.29883 Q 271.58 93.65 282.37305 100.63477 Q 293.16 107.62 305.76172 107.61719 Q 326.37 107.62 337.79297 94.04297 Q 349.22 80.47 349.21875 55.17578" />
    <path d="M 277.63672 47.65625 Q 278.03 32.03 286.76758 22.41211 Q 295.51 12.79 308.98438 12.79297 Q 318.55 12.79 325.19531 16.69922 Q 331.84 20.61 336.81641 27.05078" />
    <path d="M 347.85156 18.45703 Q 334.57 -1.95 308.00781 -1.95312" />
    <path d="M 305.76172 92.77344 Q 294.82 92.77 287.40234 84.81445 Q 279.98 76.86 278.22266 62.5 L 331.15234 62.5 L 331.15234 63.86719 Q 330.37 77.64 323.73047 85.20508 Q 317.09 92.77 305.76172 92.77344 Q 294.82 92.77 287.40234 84.81445 Q 279.98 76.86 278.22266 62.5" />
    <path d="M 331.15234 63.86719 Q 330.37 77.64 323.73047 85.20508 Q 317.09 92.77 305.76172 92.77344" />
    <path d="M 414.84375 63.37891 Q 390.72 70.31 379.73633 80.41992 Q 368.75 90.53 368.75 105.37109 Q 368.75 122.17 382.17773 133.1543 Q 395.61 144.14 417.08984 144.14063 Q 431.74 144.14 443.21289 138.47656 Q 454.69 132.81 460.98633 122.85156 Q 467.29 112.89 467.28516 101.07422 L 448.4375 101.07422 Q 448.44 113.96 440.23438 121.33789 Q 432.03 128.71 417.08984 128.71094 Q 403.22 128.71 395.45898 122.60742 Q 387.7 116.5 387.69531 105.66406 Q 387.7 96.97 395.06836 90.9668 Q 402.44 84.96 420.16602 79.98047 Q 437.89 75 447.90039 68.99414 Q 457.91 62.99 462.74414 54.98047 Q 467.58 46.97 467.57813 36.13281 Q 467.58 18.85 454.10156 8.44727 Q 440.63 -1.95 418.06641 -1.95312 Q 403.42 -1.95 390.72266 3.66211 Q 378.03 9.28 371.14258 19.04297 Q 364.26 28.81 364.25781 41.21094 L 383.10547 41.21094 Q 383.11 28.32 392.62695 20.84961 Q 402.15 13.38 418.06641 13.37891 Q 432.91 13.38 440.82031 19.43359 Q 448.73 25.49 448.73047 35.9375 Q 448.73 46.39 441.40625 52.09961 Q 434.08 57.81 414.84375 63.37891 Q 390.72 70.31 379.73633 80.41992 Q 368.75 90.53 368.75 105.37109 Q 368.75 122.17 382.17773 133.1543 Q 395.61 144.14 417.08984 144.14063 Q 431.74 144.14 443.21289 138.47656 Q 454.69 132.81 460.98633 122.85156 Q 467.29 112.89 467.28516 101.07422" />
    <path d="M 448.4375 101.07422 Q 448.44 113.96 440.23438 121.33789 Q 432.03 128.71 417.08984 128.71094 Q 403.22 128.71 395.45898 122.60742 Q 387.7 116.5 387.69531 105.66406 Q 387.7 96.97 395.06836 90.9668 Q 402.44 84.96 420.16602 79.98047 Q 437.89 75 447.90039 68.99414 Q 457.91 62.99 462.74414 54.98047 Q 467.58 46.97 467.57813 36.13281 Q 467.58 18.85 454.10156 8.44727 Q 440.63 -1.95 418.06641 -1.95312 Q 403.42 -1.95 390.72266 3.66211 Q 378.03 9.28 371.14258 19.04297 Q 364.26 28.81 364.25781 41.21094" />
    <path d="M 383.10547 41.21094 Q 383.11 28.32 392.62695 20.84961 Q 402.15 13.38 418.06641 13.37891 Q 432.91 13.38 440.82031 19.43359 Q 448.73 25.49 448.73047 35.9375 Q 448.73 46.39 441.40625 52.09961 Q 434.08 57.81 414.84375 63.37891" />
    <path d="M 508.39844 105.66406 L 508.39844 0 L 490.33203 0 L 490.33203 105.66406 L 508.39844 105.66406 Z" />
    <path d="M 488.86719 133.69141 Q 488.87 138.09 491.55273 141.11328 Q 494.24 144.14 499.51172 144.14063 Q 504.79 144.14 507.51953 141.11328 Q 510.25 138.09 510.25391 133.69141 Q 510.25 129.3 507.51953 126.36719 Q 504.79 123.44 499.51172 123.4375 Q 494.24 123.44 491.55273 126.36719 Q 488.87 129.3 488.86719 133.69141 Q 488.87 138.09 491.55273 141.11328 Q 494.24 144.14 499.51172 144.14063 Q 504.79 144.14 507.51953 141.11328 Q 510.25 138.09 510.25391 133.69141 Q 510.25 129.3 507.51953 126.36719 Q 504.79 123.44 499.51172 123.4375 Q 494.24 123.44 491.55273 126.36719 Q 488.87 129.3 488.86719 133.69141 Z" />
    <path d="M 533.00781 53.71094 Q 533.01 78.42 544.43359 93.01758 Q 555.86 107.62 574.70703 107.61719 Q 594.04 107.62 604.88281 93.94531 L 605.76172 105.66406 L 622.26563 105.66406 L 622.26563 2.53906 Q 622.27 -17.97 610.10742 -29.78516 Q 597.95 -41.6 577.44141 -41.60156 Q 566.02 -41.6 555.07813 -36.71875 Q 544.14 -31.84 538.37891 -23.33984 L 547.75391 -12.5 Q 559.38 -26.86 576.17188 -26.85547 Q 589.36 -26.86 596.72852 -19.43359 Q 604.1 -12.01 604.10156 1.46484 L 604.10156 10.54688 Q 593.26 -1.95 574.51172 -1.95312 Q 555.96 -1.95 544.48242 12.98828 Q 533.01 27.93 533.00781 53.71094 Q 533.01 78.42 544.43359 93.01758 Q 555.86 107.62 574.70703 107.61719 Q 594.04 107.62 604.88281 93.94531" />
    <path d="M 622.26563 2.53906 Q 622.27 -17.97 610.10742 -29.78516 Q 597.95 -41.6 577.44141 -41.60156 Q 566.02 -41.6 555.07813 -36.71875 Q 544.14 -31.84 538.37891 -23.33984" />
    <path d="M 547.75391 -12.5 Q 559.38 -26.86 576.17188 -26.85547 Q 589.36 -26.86 596.72852 -19.43359 Q 604.1 -12.01 604.10156 1.46484" />
    <path d="M 604.10156 10.54688 Q 593.26 -1.95 574.51172 -1.95312 Q 555.96 -1.95 544.48242 12.98828 Q 533.01 27.93 533.00781 53.71094" />
    <path d="M 551.17188 51.66016 Q 551.17 33.79 558.49609 23.58398 Q 565.82 13.38 579.00391 13.37891 Q 596.09 13.38 604.10156 28.90625 L 604.10156 77.14844 Q 595.8 92.29 579.19922 92.28516 Q 566.02 92.29 558.59375 82.03125 Q 551.17 71.78 551.17188 51.66016 Q 551.17 33.79 558.49609 23.58398 Q 565.82 13.38 579.00391 13.37891 Q 596.09 13.38 604.10156 28.90625" />
    <path d="M 604.10156 77.14844 Q 595.8 92.29 579.19922 92.28516 Q 566.02 92.29 558.59375 82.03125 Q 551.17 71.78 551.17188 51.66016" />
    <path d="M 649.51172 105.66406 L 666.60156 105.66406 L 667.1875 92.38281 Q 679.3 107.62 698.82813 107.61719 Q 732.32 107.62 732.61719 69.82422 L 732.61719 0 L 714.55078 0 L 714.55078 69.92188 Q 714.45 81.35 709.32617 86.81641 Q 704.2 92.29 693.35938 92.28516 Q 684.57 92.29 677.92969 87.59766 Q 671.29 82.91 667.57813 75.29297 L 667.57813 0 L 649.51172 0 L 649.51172 105.66406 Z" />
    <path d="M 667.1875 92.38281 Q 679.3 107.62 698.82813 107.61719 Q 732.32 107.62 732.61719 69.82422" />
    <path d="M 714.55078 69.92188 Q 714.45 81.35 709.32617 86.81641 Q 704.2 92.29 693.35938 92.28516 Q 684.57 92.29 677.92969 87.59766 Q 671.29 82.91 667.57813 75.29297" />
</svg>